{
  "accessors": [
    {
      "bufferView": 1,
      "componentType": 5126,
      "count": 497,
      "max": [
        -3.5343818664550781,
        44.097911834716797,
        30
      ],
      "min": [
        -23.680622100830078,
        -44.097911834716797,
        15
      ],
      "type": "VEC3"
    },
    {
      "bufferView": 1,
      "byteOffset": 5964,
      "componentType": 5126,
      "count": 497,
      "max": [
        1,
        1,
        0.9999992847442627
      ],
      "min": [
        -1,
        -1,
        -1
      ],
      "type": "VEC3"
    },
    {
      "bufferView": 2,
      "componentType": 5126,
      "count": 497,
      "max": [
        1,
        1,
        0.99570351839065552,
        1
      ],
      "min": [
        -1,
        -1,
        -0.99302828311920166,
        -1
      ],
      "type": "VEC4"
    },
    {
      "bufferView": 0,
      "componentType": 5125,
      "count": 618,
      "max": [
        496
      ],
      "min": [
        0
      ],
      "type": "SCALAR"
    }
  ],
  "asset": {
    "generator": "Sketchfab (OSG glTF plugin)",
    "version": "2.0"
  },
  "bufferViews": [
    {
      "buffer": 0,
      "byteLength": 2472,
      "byteOffset": 0,
      "name": "floatBufferViews",
      "target": 34963
    },
    {
      "buffer": 0,
      "byteLength": 11928,
      "byteOffset": 2472,
      "byteStride": 12,
      "name": "floatBufferViews",
      "target": 34962
    },
    {
      "buffer": 0,
      "byteLength": 7952,
      "byteOffset": 14400,
      "byteStride": 16,
      "name": "floatBufferViews",
      "target": 34962
    }
  ],
  "buffers": [
    {
      "byteLength": 22352,
      "uri": "scene.bin"
    }
  ],
  "materials": [
    {
      "doubleSided": true,
      "emissiveFactor": [
        0,
        0,
        0
      ],
      "name": "RootNode",
      "pbrMetallicRoughness": {
        "baseColorFactor": [
          1,
          1,
          1,
          1
        ],
        "metallicFactor": 0,
        "roughnessFactor": 0.59999999999999998
      }
    }
  ],
  "meshes": [
    {
      "name": "Box004__0",
      "primitives": [
        {
          "attributes": {
            "NORMAL": 1,
            "POSITION": 0,
            "TANGENT": 2
          },
          "indices": 3,
          "material": 0,
          "mode": 4
        }
      ]
    }
  ],
  "nodes": [
    {
      "children": [
        1
      ],
      "name": "RootNode (gltf orientation matrix)",
      "rotation": [
        -0.70710678118654746,
        -0,
        -0,
        0.70710678118654757
      ]
    },
    {
      "children": [
        2
      ],
      "name": "RootNode (model correction matrix)"
    },
    {
      "children": [
        3
      ],
      "matrix": [
        1,
        0,
        0,
        0,
        0,
        0,
        1,
        0,
        0,
        -1,
        0,
        0,
        0,
        0,
        0,
        1
      ],
      "name": "e5f77c3123794dbea9a484be510ec112.fbx"
    },
    {
      "children": [
        4
      ],
      "name": "RootNode"
    },
    {
      "children": [
        6
      ],
      "matrix": [
        -0.99999999999998868,
        -1.2246469849340659e-16,
        1.5099580265055077e-07,
        0,
        1.5099580265055077e-07,
        -4.4408920985006262e-16,
        0.99999999999998868,
        0,
        -1.2246464555384738e-16,
        1,
        3.3306690738754696e-16,
        0,
        21.465608596801758,
        -15,
        14.063070297241211,
        1
      ],
      "name": "Box004"
    },
    {
      "mesh": 0,
      "name": "Box004__0"
    },
    {
      "children": [
        5
      ],
      "name": "Geode"
    }
  ],
  "scene": 0,
  "scenes": [
    {
      "name": "OSG_Scene",
      "nodes": [
        0
      ]
    }
  ]
}

